<svg width="64" height="64" viewBox="0 0 64 64" fill="none" xmlns="http://www.w3.org/2000/svg">
<path d="M40.5976 4.04654C40.5976 4.07566 45.8653 14.5479 52.2988 27.3169L64 50.5331V54.7645V59H52.0682H40.1363V44.417V29.8341H42.8204C45.7269 29.8341 45.601 29.8465 45.4207 29.6135C45.3746 29.5553 45.1313 29.21 44.8797 28.848C44.6322 28.486 44.259 27.9451 44.0493 27.6497C43.5544 26.9341 42.9421 26.0562 42.3717 25.2366C42.1201 24.8704 41.7258 24.3088 41.5035 23.9884C41.1303 23.4517 40.757 22.9191 39.8008 21.5378C39.6037 21.2549 39.2262 20.714 38.962 20.3312C38.6978 19.9526 38.3287 19.42 38.14 19.1496C37.5696 18.3258 36.8986 17.3605 36.4121 16.6657C36.152 16.2996 35.8207 15.8211 35.6739 15.6047C35.5229 15.3884 35.1455 14.8433 34.8351 14.3982C34.5206 13.953 34.1054 13.3538 33.9083 13.0668C33.7069 12.7797 33.3127 12.2097 33.0233 11.7978C32.7339 11.3859 32.4026 10.9074 32.2894 10.7368C32.172 10.5662 32.0629 10.4206 32.0419 10.4123C32.0252 10.404 31.8113 10.6869 31.5722 11.0364C31.329 11.3859 30.9641 11.9143 30.7544 12.2138C30.5489 12.5092 30.1882 13.0293 29.9533 13.3663C29.7185 13.7075 29.3326 14.2567 29.0978 14.5937C28.8629 14.9349 28.5106 15.4425 28.3093 15.7296C27.3195 17.1525 26.8288 17.8598 26.4765 18.3632C26.2668 18.667 25.8936 19.2037 25.6461 19.5573C25.0674 20.3936 24.7318 20.8762 23.9685 21.9705C23.6246 22.4614 23.2094 23.0564 23.0459 23.2894C22.8865 23.5266 22.5594 23.9925 22.3245 24.3296C22.0896 24.6707 21.7122 25.2116 21.4857 25.5361C21.0999 26.0895 20.4959 26.9591 19.611 28.2322C18.8854 29.2765 18.5373 29.7883 18.5373 29.8091C18.5373 29.8216 19.7368 29.8341 21.2005 29.8341H23.8637V44.417V59H11.9318H0V54.7354C0 52.3888 0.0125771 50.4707 0.0293541 50.4707C0.0503235 50.4707 5.32634 40.0151 11.7641 27.2337L23.4653 4.00077H32.0294C38.8571 3.9966 40.5976 4.00909 40.5976 4.04654Z" fill="#4E80EE"/>
<path d="M40.5976 4.04654C40.5976 4.07566 45.8653 14.5479 52.2988 27.3169L64 50.5331V54.7645V59H52.0682H40.1363V44.417V29.8341H42.8204C45.7269 29.8341 45.601 29.8465 45.4207 29.6135C45.3746 29.5553 45.1313 29.21 44.8797 28.848C44.6322 28.486 44.259 27.9451 44.0493 27.6497C43.5544 26.9341 42.9421 26.0562 42.3717 25.2366C42.1201 24.8704 41.7258 24.3088 41.5035 23.9884C41.1303 23.4517 40.757 22.9191 39.8008 21.5378C39.6037 21.2549 39.2262 20.714 38.962 20.3312C38.6978 19.9526 38.3287 19.42 38.14 19.1496C37.5696 18.3258 36.8986 17.3605 36.4121 16.6657C36.152 16.2996 35.8207 15.8211 35.6739 15.6047C35.5229 15.3884 35.1455 14.8433 34.8351 14.3982C34.5206 13.953 34.1054 13.3538 33.9083 13.0668C33.7069 12.7797 33.3127 12.2097 33.0233 11.7978C32.7339 11.3859 32.4026 10.9074 32.2894 10.7368C32.172 10.5662 32.0629 10.4206 32.0419 10.4123C32.0252 10.404 31.8113 10.6869 31.5722 11.0364C31.329 11.3859 30.9641 11.9143 30.7544 12.2138C30.5489 12.5092 30.1882 13.0293 29.9533 13.3663C29.7185 13.7075 29.3326 14.2567 29.0978 14.5937C28.8629 14.9349 28.5106 15.4425 28.3093 15.7296C27.3195 17.1525 26.8288 17.8598 26.4765 18.3632C26.2668 18.667 25.8936 19.2037 25.6461 19.5573C25.0674 20.3936 24.7318 20.8762 23.9685 21.9705C23.6246 22.4614 23.2094 23.0564 23.0459 23.2894C22.8865 23.5266 22.5594 23.9925 22.3245 24.3296C22.0896 24.6707 21.7122 25.2116 21.4857 25.5361C21.0999 26.0895 20.4959 26.9591 19.611 28.2322C18.8854 29.2765 18.5373 29.7883 18.5373 29.8091C18.5373 29.8216 19.7368 29.8341 21.2005 29.8341H23.8637V44.417V59H11.9318H0V54.7354C0 52.3888 0.0125771 50.4707 0.0293541 50.4707C0.0503235 50.4707 5.32634 40.0151 11.7641 27.2337L23.4653 4.00077H32.0294C38.8571 3.9966 40.5976 4.00909 40.5976 4.04654Z" fill="#5A86C3"/>
<path d="M40.5976 4.04654C40.5976 4.07566 45.8653 14.5479 52.2988 27.3169L64 50.5331V54.7645V59H52.0682H40.1363V44.417V29.8341H42.8204C45.7269 29.8341 45.601 29.8465 45.4207 29.6135C45.3746 29.5553 45.1313 29.21 44.8797 28.848C44.6322 28.486 44.259 27.9451 44.0493 27.6497C43.5544 26.9341 42.9421 26.0562 42.3717 25.2366C42.1201 24.8704 41.7258 24.3088 41.5035 23.9884C41.1303 23.4517 40.757 22.9191 39.8008 21.5378C39.6037 21.2549 39.2262 20.714 38.962 20.3312C38.6978 19.9526 38.3287 19.42 38.14 19.1496C37.5696 18.3258 36.8986 17.3605 36.4121 16.6657C36.152 16.2996 35.8207 15.8211 35.6739 15.6047C35.5229 15.3884 35.1455 14.8433 34.8351 14.3982C34.5206 13.953 34.1054 13.3538 33.9083 13.0668C33.7069 12.7797 33.3127 12.2097 33.0233 11.7978C32.7339 11.3859 32.4026 10.9074 32.2894 10.7368C32.172 10.5662 32.0629 10.4206 32.0419 10.4123C32.0252 10.404 31.8113 10.6869 31.5722 11.0364C31.329 11.3859 30.9641 11.9143 30.7544 12.2138C30.5489 12.5092 30.1882 13.0293 29.9533 13.3663C29.7185 13.7075 29.3326 14.2567 29.0978 14.5937C28.8629 14.9349 28.5106 15.4425 28.3093 15.7296C27.3195 17.1525 26.8288 17.8598 26.4765 18.3632C26.2668 18.667 25.8936 19.2037 25.6461 19.5573C25.0674 20.3936 24.7318 20.8762 23.9685 21.9705C23.6246 22.4614 23.2094 23.0564 23.0459 23.2894C22.8865 23.5266 22.5594 23.9925 22.3245 24.3296C22.0896 24.6707 21.7122 25.2116 21.4857 25.5361C21.0999 26.0895 20.4959 26.9591 19.611 28.2322C18.8854 29.2765 18.5373 29.7883 18.5373 29.8091C18.5373 29.8216 19.7368 29.8341 21.2005 29.8341H23.8637V44.417V59H11.9318H0V54.7354C0 52.3888 0.0125771 50.4707 0.0293541 50.4707C0.0503235 50.4707 5.32634 40.0151 11.7641 27.2337L23.4653 4.00077H32.0294C38.8571 3.9966 40.5976 4.00909 40.5976 4.04654Z" fill="#7CA6D8"/>
</svg>
